<?xml version="1.0" standalone="no"?>
<!DOCTYPE svg PUBLIC "-//W3C//DTD SVG 20010904//EN"
 "http://www.w3.org/TR/2001/REC-SVG-20010904/DTD/svg10.dtd">
<svg version="1.0" xmlns="http://www.w3.org/2000/svg"
 width="391.000000pt" height="391.000000pt" viewBox="0 0 391.000000 391.000000"
 preserveAspectRatio="xMidYMid meet">
<metadata>
Created by potrace 1.14, written by Peter Selinger 2001-2017
</metadata>
<g transform="translate(0.000000,391.000000) scale(0.100000,-0.100000)"
fill="#000000" stroke="none">
<path d="M1915 3822 c-238 -24 -408 -246 -366 -479 41 -221 245 -364 473 -332
145 21 276 141 323 294 13 46 14 163 1 219 -23 95 -119 210 -217 258 -55 27
-157 46 -214 40z m186 -66 c108 -51 184 -140 212 -249 13 -50 16 -151 5 -163
-3 -2 -42 32 -86 76 -44 44 -83 80 -86 80 -2 0 -49 -45 -104 -100 l-99 -99
-28 29 c-16 17 -33 30 -38 30 -5 0 -52 -43 -104 -95 -53 -52 -99 -95 -103 -95
-13 0 -59 77 -75 126 -66 203 49 420 255 480 70 21 186 11 251 -20z"/>
<path d="M1794 3626 c-44 -44 -47 -92 -6 -136 87 -97 229 17 157 126 -35 54
-103 58 -151 10z"/>
<path d="M1763 2482 c-12 -2 -27 -10 -34 -18 -9 -11 -12 -271 -12 -1157 0
-628 3 -1152 7 -1164 8 -26 -7 -25 233 -26 135 0 186 3 197 13 14 11 16 134
16 1170 0 1027 -2 1159 -15 1170 -11 9 -66 13 -193 14 -97 1 -187 0 -199 -2z"/>
</g>
</svg>
